<svg xmlns="http://www.w3.org/2000/svg" width="148.353" height="42.654" viewBox="0 0 148.353 42.654">
  <g id="Logo_Type" data-name="Logo Type" transform="translate(-72.382 -54.22)">
    <path id="Path_6" data-name="Path 6" d="M-25.474-.094q-.235,0-1.081-.094-.423-.047-1.739-.047l-3.431.047a1.027,1.027,0,0,1-.634-.188.607.607,0,0,1-.118-.4v-.353l-.047-2.491q0-.658-.047-1.128l-.047-3.2q0-.705.07-1.433t.07-1.058a19.046,19.046,0,0,0,.141-2.444l-.047-5.358.047-3.1q.094-2.162.094-3.29,0-2.632-.094-6.486a2.049,2.049,0,0,1,.212-1.128.743.743,0,0,1,.634-.282,3.865,3.865,0,0,1,.588.047,4.87,4.87,0,0,0,.728.047l3.572-.094,3.008-.094q.564,0,1.269-.047l1.41-.094q1.6-.141,2.632-.141l3.948.047q1.081,0,1.081.705v2.35q0,.423-.165.493a2.083,2.083,0,0,1-.681.071q-.611,0-1.081-.047l-3.008-.047a31.483,31.483,0,0,0-3.478.188l-2.3.141-.141.846q-.094,1.034-.094,1.645l-.047,4.183-.047,2.4V-18.8q.987,0,1.457-.047l2.256-.047,1.88-.047q.658-.047,1.833-.047a1.866,1.866,0,0,1,1.01.188.7.7,0,0,1,.259.611l-.047,1.551a.576.576,0,0,1-.212.517,1.767,1.767,0,0,1-.869.141q-.846,0-1.41-.047l-1.88-.047h-4.371q0,1.222.047,1.786l.047,2.961-.047,2.3q-.094,1.5-.094,2.3l.047,5.546a1.114,1.114,0,0,1-.258.846A1.2,1.2,0,0,1-25.474-.094ZM-5.358.188A7.986,7.986,0,0,1-8.719-.353,2.708,2.708,0,0,1-10.176-1.9a8.428,8.428,0,0,1-.352-2.7l.047-3.008q.047-.8.047-2.679l-.047-5.5q-.047-.705-.047-1.5v-9.118q0-1.692.047-2.632l.047-1.786v-2.021a3.388,3.388,0,0,1,.165-1.527.68.68,0,0,1,.634-.4,1.223,1.223,0,0,1,.376.047,4.671,4.671,0,0,0,.823.023q.446-.024.823-.023h1.175q1.222,0,1.692.047a1.281,1.281,0,0,1,.729.235.716.716,0,0,1,.212.564q0,.141-.094,1.081a66.83,66.83,0,0,0-.376,8.554q-.047.846-.024,1.457t.024,1.034v1.269q.047,1.175.047,3.29l-.047,4.136.094,3.008q.047,1.128.094,2.585T-4.042-4.7v.94q0,.611,1.034.611a2.206,2.206,0,0,0,.823-.141,1.616,1.616,0,0,1,.493-.141q.376,0,.611.658A4.586,4.586,0,0,0-.611-1.6a.192.192,0,0,1,.047.141A.649.649,0,0,1-.8-1.034,4.043,4.043,0,0,1-2.679,0,14.528,14.528,0,0,1-5.358.188Zm7.9.188a.948.948,0,0,1-.47-.071A.373.373,0,0,1,1.974,0q0-.141.024-.447t.023-.823l.047-5.123.094-8.178q0-1.316.188-5.64.188-4.841.141-5.311l-.047-.8a1.668,1.668,0,0,1,.141-.775.536.536,0,0,1,.517-.259l1.974.047q.423,0,.423.517a2.391,2.391,0,0,1-.047.47,2.391,2.391,0,0,0-.047.47q-.094.987-.188,4.324,0,1.081-.188,5.5-.047,1.457-.094,2.843t-.047,2.421q0,2.256.07,5.711T5.123-.94a2.231,2.231,0,0,1,.047.517A.962.962,0,0,1,5.1.024a.493.493,0,0,1-.352.165,2.837,2.837,0,0,1-1.2.188ZM4.089-29.093a2.626,2.626,0,0,1-1.81-.752,2.441,2.441,0,0,1-.822-1.88,2.5,2.5,0,0,1,.729-1.763A2.28,2.28,0,0,1,3.9-34.263a3.8,3.8,0,0,1,2.115.611,1.915,1.915,0,0,1,.94,1.692,2.57,2.57,0,0,1-.94,2.092A3.01,3.01,0,0,1,4.089-29.093ZM19.552,7.567a2.054,2.054,0,0,1-.447-.047,1.845,1.845,0,0,0-.4-.047l-6.251-.047q-.423,0-.517-.141a.769.769,0,0,1-.094-.423q0-.141-.023-.54T11.8,4.982L11.985-.47q.235-4.559.235-6.251V-9.259q0-1.034-.047-1.645l-.094-12.22L11.985-25.1l-.094-1.739q0-.376.165-.47a.658.658,0,0,1,.329-.094H12.6l1.128.047,1.645.094,4.089-.141q.329,0,.376.164a3.41,3.41,0,0,1,.047.729v.329a8.872,8.872,0,0,1,5.452-1.645,5.977,5.977,0,0,1,5.288,2.8,15.968,15.968,0,0,1,2.444,6.087,32.824,32.824,0,0,1,.587,5.64,24.113,24.113,0,0,1-.964,7.027A11.612,11.612,0,0,1,29.8-1.222,6.535,6.535,0,0,1,25.051.658,14.231,14.231,0,0,1,22.208.376a7.2,7.2,0,0,1-2.185-.752l-.047,4.559-.047,3.055Q19.928,7.567,19.552,7.567Zm2.726-14.9q3.149,0,3.149-6.11a19.136,19.136,0,0,0-.282-3.736,3.391,3.391,0,0,0-.964-1.927,2.824,2.824,0,0,0-1.9-.587,2.287,2.287,0,0,0-1.316.353,6.035,6.035,0,0,0-1.034.916l-.094,1.551.094,3.1.047,2.4v3.008A2.9,2.9,0,0,0,22.278-7.332Z" transform="translate(105 89)" fill="#e5c284"/>
    <path id="Path_5" data-name="Path 5" d="M-29.986-34.8a13.665,13.665,0,0,0-4.747.7,9.539,9.539,0,0,0-2.279,1.058q-.4.353-1.763,1.715-.282.282-.141.376a2,2,0,0,0,.329.517l.611.752q.235.329.846,1.081a.451.451,0,0,0,.329.141,1.076,1.076,0,0,0,.517-.212,3.374,3.374,0,0,0,.564-.446q.047-.047.541-.447a4.513,4.513,0,0,1,1.433-.7,6.661,6.661,0,0,1,2.068-.306,5.34,5.34,0,0,1,2.585.588,2.554,2.554,0,0,1,1.081,2.467,4.767,4.767,0,0,1-.635,2.538,5.907,5.907,0,0,1-1.574,1.715,24.3,24.3,0,0,1-2.585,1.575,30.971,30.971,0,0,0-2.961,1.857,6.7,6.7,0,0,0-1.9,2.232,7.136,7.136,0,0,0-.776,3.478A7.353,7.353,0,0,0-37.13-9.795a8.461,8.461,0,0,0,3.6,2.89,12.331,12.331,0,0,0,5.053,1.011q4.418,0,6.7-1.857t2.374-1.9a.407.407,0,0,0,.188-.329.505.505,0,0,0-.094-.282,1.186,1.186,0,0,1-.141-.282q-.188-.282-.635-.987a6.145,6.145,0,0,0-.729-.987l-.235-.352a.661.661,0,0,0-.259-.258.834.834,0,0,0-.305-.047,14.813,14.813,0,0,0-1.316,1.01,19.1,19.1,0,0,1-2.514,1.716,4.981,4.981,0,0,1-2.373.8,1.577,1.577,0,0,1-1.457-.681,4.541,4.541,0,0,1-.423-2.28,3.337,3.337,0,0,1,.564-1.974,4.168,4.168,0,0,1,1.081-1.128q.517-.329,1.974-1.081a23.943,23.943,0,0,0,3.031-1.457,7.807,7.807,0,0,0,2.491-2.632,9.161,9.161,0,0,0,1.2-4.982Q-19.364-34.8-29.986-34.8Zm15.51.423a.948.948,0,0,0-.47.07A.373.373,0,0,0-15.04-34q0,.141.024.446t.023.823l.047,5.123.094,8.178q0,1.316.188,5.64.188,4.841.141,5.311l-.047.8a1.668,1.668,0,0,0,.141.775.536.536,0,0,0,.517.259l1.974-.047q.423,0,.423-.517a2.391,2.391,0,0,0-.047-.47,2.391,2.391,0,0,1-.047-.47q-.094-.987-.188-4.324,0-1.081-.188-5.5-.047-1.457-.094-2.843t-.047-2.421q0-2.256.071-5.711t.164-4.113a2.231,2.231,0,0,0,.047-.517.962.962,0,0,0-.071-.446.493.493,0,0,0-.352-.165,2.837,2.837,0,0,0-1.2-.188Zm1.551,29.469a2.626,2.626,0,0,0-1.809.752,2.441,2.441,0,0,0-.823,1.88,2.5,2.5,0,0,0,.729,1.763,2.28,2.28,0,0,0,1.715.775A3.8,3.8,0,0,0-11-.348a1.915,1.915,0,0,0,.94-1.692A2.57,2.57,0,0,0-11-4.132,3.01,3.01,0,0,0-12.925-4.907ZM3.431-34.517A7.57,7.57,0,0,0-2.89-31.744,14.189,14.189,0,0,0-5.734-25.7a29.42,29.42,0,0,0-.658,5.71A19.171,19.171,0,0,0-4.018-9.983a8.064,8.064,0,0,0,7.45,3.948A11.518,11.518,0,0,0,9.306-7.586L9.353-2.51,9.4.545q0,.329.376.329A2.3,2.3,0,0,0,10.27.827,1.682,1.682,0,0,1,10.622.78l1.5-.047q.423,0,.517-.141a.769.769,0,0,0,.094-.423q0-.141.024-.541t.023-1.34L12.6-7.163q-.235-4.559-.235-6.251v-2.538q0-1.034.047-1.645l.094-12.22.094-1.974.094-1.739q0-.376-.164-.47a.658.658,0,0,0-.329-.094h-.212a1.413,1.413,0,0,0-.235.047,2.505,2.505,0,0,1-.564.047,5.767,5.767,0,0,1-.8-.047,3.886,3.886,0,0,0-.517-.047q-.282,0-.352.118a1.449,1.449,0,0,0-.071.588v.047A14.211,14.211,0,0,0,3.431-34.517Zm.188,2.209A6.342,6.342,0,0,1,9.4-29.3v9.259q0,4.606-.047,5.452-.047.893-.047,2.867v.188A7.452,7.452,0,0,1,6.369-9.207a8.833,8.833,0,0,1-3.69.823,4.53,4.53,0,0,1-2.7-.987,7.251,7.251,0,0,1-2.232-3.055,12.94,12.94,0,0,1-.893-5.123A30.025,30.025,0,0,1-1.527-27.867Q.094-32.308,3.619-32.308Zm25.333-2.209q-6.721,0-9.212,4.042T17.249-19.618a15.649,15.649,0,0,0,1.48,6.7,13.258,13.258,0,0,0,4.042,5.1,9.2,9.2,0,0,0,5.664,1.927A7.8,7.8,0,0,0,34.5-8.432a14.587,14.587,0,0,0,3.267-6.415A33.7,33.7,0,0,0,38.728-23a.341.341,0,0,0-.235-.423,4.306,4.306,0,0,0-1.128-.094q-1.5.094-2.444.094-1.551,0-4.089-.094l-1.222-.047h-1.6q-3.337,0-4.324.047-2.256,0-3.29.047.282-4.23,2.327-6.368t6.039-2.139a8.516,8.516,0,0,1,4.183,1.152,7.035,7.035,0,0,1,2.961,2.89.192.192,0,0,0,.141.047,1,1,0,0,0,.587-.306q.353-.306.541-.447.517-.329.752-.517a.774.774,0,0,0,.282-.517,11.4,11.4,0,0,0-3.877-3.384A10.727,10.727,0,0,0,28.952-34.517ZM30.174-20.6q1.269,0,2.514.07t3.078.259A25.352,25.352,0,0,1,33.582-12q-1.668,3.478-4.3,3.478a6.662,6.662,0,0,1-4.23-1.575,11.681,11.681,0,0,1-3.243-4.3,16.518,16.518,0,0,1-1.457-6.11q.329,0,.893-.024t1.6.024Z" transform="translate(182 96)" fill="#c3560e"/>
  </g>
</svg>
